HIERARCHY
ROOT Hips
{
	OFFSET 0.00000 0.00000 0.00000
	CHANNELS 6 Xposition Yposition Zposition Zrotation Yrotation Xrotation 
	JOINT LHipJoint
	{
		OFFSET 0 0 0
		CHANNELS 3 Zrotation Yrotation Xrotation
		JOINT LeftUpLeg
		{
			OFFSET 1.48831 -1.59570 0.95625
			CHANNELS 3 Zrotation Yrotation Xrotation
			JOINT LeftLeg
			{
				OFFSET 2.20856 -6.06797 0.00000
				CHANNELS 3 Zrotation Yrotation Xrotation
				JOINT LeftFoot
				{
					OFFSET 2.62924 -7.22379 0.00000
					CHANNELS 3 Zrotation Yrotation Xrotation
					JOINT LeftToeBase
					{
						OFFSET 0.16802 -0.46163 2.41673
						CHANNELS 3 Zrotation Yrotation Xrotation
						End Site
						{
							OFFSET 0.00000 -0.00000 1.23760
						}
					}
				}
			}
		}
	}
	JOINT RHipJoint
	{
		OFFSET 0 0 0
		CHANNELS 3 Zrotation Yrotation Xrotation
		JOINT RightUpLeg
		{
			OFFSET -1.56796 -1.59570 0.95625
			CHANNELS 3 Zrotation Yrotation Xrotation
			JOINT RightLeg
			{
				OFFSET -2.29239 -6.29829 0.00000
				CHANNELS 3 Zrotation Yrotation Xrotation
				JOINT RightFoot
				{
					OFFSET -2.66963 -7.33475 0.00000
					CHANNELS 3 Zrotation Yrotation Xrotation
					JOINT RightToeBase
					{
						OFFSET -0.18185 -0.49964 2.34359
						CHANNELS 3 Zrotation Yrotation Xrotation
						End Site
						{
							OFFSET -0.00000 -0.00000 1.20477
						}
					}
				}
			}
		}
	}
	JOINT LowerBack
	{
		OFFSET 0 0 0
		CHANNELS 3 Zrotation Yrotation Xrotation
		JOINT Spine
		{
			OFFSET 0.03505 2.15832 -0.34324
			CHANNELS 3 Zrotation Yrotation Xrotation
			JOINT Spine1
			{
				OFFSET -0.01089 2.17963 0.04689
				CHANNELS 3 Zrotation Yrotation Xrotation
				JOINT Neck
				{
					OFFSET 0 0 0
					CHANNELS 3 Zrotation Yrotation Xrotation
					JOINT Neck1
					{
						OFFSET 0.04686 1.69404 0.22159
						CHANNELS 3 Zrotation Yrotation Xrotation
						JOINT Head
						{
							OFFSET 0.00265 1.69305 -0.01513
							CHANNELS 3 Zrotation Yrotation Xrotation
							End Site
							{
								OFFSET -0.00415 1.80215 -0.03034
							}
						}
					}
				}
				JOINT LeftShoulder
				{
					OFFSET 0 0 0
					CHANNELS 3 Zrotation Yrotation Xrotation
					JOINT LeftArm
					{
						OFFSET 3.67184 1.11724 -0.19002
						CHANNELS 3 Zrotation Yrotation Xrotation
						JOINT LeftForeArm
						{
							OFFSET 5.17714 -0.00000 -0.00000
							CHANNELS 3 Zrotation Yrotation Xrotation
							JOINT LeftHand
							{
								OFFSET 3.43679 -0.00000 -0.00000
								CHANNELS 3 Zrotation Yrotation Xrotation
								JOINT LeftFingerBase
								{
									OFFSET 0 0 0
									CHANNELS 3 Zrotation Yrotation Xrotation
									JOINT LeftHandIndex1
									{
										OFFSET 0.57312 -0.00000 -0.00000
										CHANNELS 3 Zrotation Yrotation Xrotation
										End Site
										{
											OFFSET 0.46206 -0.00000 -0.00000
										}
									}
								}
								JOINT LThumb
								{
									OFFSET 0 0 0
									CHANNELS 3 Zrotation Yrotation Xrotation
									End Site
									{
										OFFSET 0.46912 -0.00000 0.46912
									}
								}
							}
						}
					}
				}
				JOINT RightShoulder
				{
					OFFSET 0 0 0
					CHANNELS 3 Zrotation Yrotation Xrotation
					JOINT RightArm
					{
						OFFSET -3.59596 0.95831 -0.26050
						CHANNELS 3 Zrotation Yrotation Xrotation
						JOINT RightForeArm
						{
							OFFSET -5.23908 -0.00000 -0.00000
							CHANNELS 3 Zrotation Yrotation Xrotation
							JOINT RightHand
							{
								OFFSET -3.46485 -0.00000 -0.00000
								CHANNELS 3 Zrotation Yrotation Xrotation
								JOINT RightFingerBase
								{
									OFFSET 0 0 0
									CHANNELS 3 Zrotation Yrotation Xrotation
									JOINT RightHandIndex1
									{
										OFFSET -0.60875 -0.00000 -0.00000
										CHANNELS 3 Zrotation Yrotation Xrotation
										End Site
										{
											OFFSET -0.49079 -0.00000 -0.00000
										}
									}
								}
								JOINT RThumb
								{
									OFFSET 0 0 0
									CHANNELS 3 Zrotation Yrotation Xrotation
									End Site
									{
										OFFSET -0.49829 -0.00000 0.49829
									}
								}
							}
						}
					}
				}
			}
		}
	}
}
MOTION
Frames: 13
Frame Time: .0083333
49.9666 15.8876 16.7355 0 0 0 0 0 0 -21 0 0 0 0 0 0 0 0 0 0 0 0 0 0 21 0 0 0 0 0 0 0 0 0 0 0 0 0 0 0 0 0 0 0 0 0 0 -16 0 0 21 0 0 11 0 0 0 -8 0 0 0 0 0 0 0 0 0 0 0 0 0 0 0 0 0 0 0 0 8 0 0 0 0 0 0 0 0 0 0 0 0 0 0 0 0 0
49.9666 15.8876 16.7355 -174.2670 -40.5317 172.7830 0.0000 0.0000 0.0000 -14.8012 7.8660 -7.6710 2.4525 9.7510 28.1741 1.5739 -0.3291 -23.6367 0.0782 1.8045 4.9656 0.0000 0.0000 0.0000 26.4433 1.6439 -9.2029 -3.6448 -11.6721 34.5817 -2.1543 -3.8988 -29.3354 -0.2240 -3.0468 8.4092 3.0809 -1.2476 4.3044 1.5364 -1.7796 3.9645 -0.0991 -0.9205 1.6254 1.9797 0.2172 -9.0010 -0.3379 -0.0020 10.4246 -0.4287 0.0309 4.6006 -0.0000 0.0000 0.0000 -85.7106 14.1602 38.6648 152.9754 -38.2027 -110.4857 -0.0000 0.0000 -2.1595 -12.0074 41.1351 -7.9649 -7.1250 0.0000 -0.0000 -57.3772 61.8492 -28.3627 -0.0000 0.0000 0.0000 84.0305 -11.9951 38.0740 -149.1620 41.6009 -108.0379 0.0000 0.0000 13.1810 25.6724 -17.1232 -8.0552 7.1250 -0.0000 -0.0000 45.7097 -42.1231 4.2829
49.9704 15.8883 16.7383 -174.3130 -40.5438 172.8210 0.0000 0.0000 0.0000 -14.8444 7.8438 -7.6804 2.4481 9.7429 28.1481 1.5668 -0.2919 -23.5949 0.0820 1.8467 5.0822 0.0000 0.0000 0.0000 26.4134 1.6625 -9.2334 -3.6468 -11.6749 34.5915 -2.1546 -3.9315 -29.3528 -0.2272 -3.0679 8.4677 3.0284 -1.2471 4.3262 1.5258 -1.7815 3.9906 -0.0805 -0.9227 1.6411 1.8799 0.2502 -9.1332 -0.2119 0.0374 10.5200 -0.3711 0.0544 4.6525 -0.0000 0.0000 0.0000 -85.7390 14.1426 38.5146 153.1305 -38.0544 -110.5815 -0.0000 0.0000 -2.8660 -12.6489 41.3792 -8.4384 -7.1250 0.0000 -0.0000 -58.2762 61.8236 -28.9458 -0.0000 0.0000 0.0000 84.0069 -11.9716 38.1103 -149.1826 41.5838 -108.0515 0.0000 0.0000 13.1581 25.6896 -17.2080 -8.0996 7.1250 -0.0000 -0.0000 45.7737 -42.1881 4.1934
49.9735 15.8892 16.7408 -174.3680 -40.5276 172.8580 0.0000 0.0000 0.0000 -14.8873 7.8561 -7.6813 2.4433 9.7340 28.1196 1.5629 -0.2947 -23.5641 0.0834 1.8628 5.1267 0.0000 0.0000 0.0000 26.3729 1.6898 -9.2555 -3.6508 -11.6807 34.6116 -2.1524 -3.9548 -29.3494 -0.2204 -3.0222 8.3405 2.9684 -1.2396 4.3196 1.5262 -1.7775 4.0376 -0.0476 -0.9222 1.6951 1.7893 0.2571 -9.1189 -0.1561 0.0553 10.4343 -0.3378 0.0634 4.6239 -0.0000 0.0000 0.0000 -85.7804 14.0013 38.5131 153.1160 -38.0683 -110.5725 -0.0000 0.0000 -2.8866 -12.5215 41.5688 -8.3828 -7.1250 0.0000 -0.0000 -58.4469 61.9696 -29.2595 -0.0000 0.0000 0.0000 83.9893 -11.8922 38.1308 -149.1888 41.5786 -108.0557 0.0000 0.0000 13.1339 25.7841 -17.2134 -8.1357 7.1250 -0.0000 -0.0000 45.8384 -42.1786 4.2181
49.9763 15.8899 16.7432 -174.4060 -40.5090 172.9020 0.0000 0.0000 0.0000 -14.9227 7.8552 -7.7027 2.4388 9.7257 28.0929 1.5588 -0.2507 -23.5468 0.0831 1.8589 5.1159 0.0000 0.0000 0.0000 26.3425 1.7100 -9.2977 -3.6543 -11.6856 34.6287 -2.1500 -3.9328 -29.3238 -0.2237 -3.0445 8.4027 2.9698 -1.2141 4.3322 1.4850 -1.7431 4.0548 -0.0917 -0.9041 1.7053 1.8814 0.2365 -9.1511 -0.2468 0.0249 10.4607 -0.3828 0.0466 4.6371 -0.0000 0.0000 0.0000 -85.7213 13.9288 38.4841 153.1184 -38.0660 -110.5740 -0.0000 0.0000 -3.0516 -12.6498 41.3798 -8.4391 -7.1250 0.0000 -0.0000 -58.2779 61.8237 -28.9471 -0.0000 0.0000 0.0000 84.0444 -11.8960 38.1217 -149.2049 41.5652 -108.0663 0.0000 0.0000 13.1649 25.7246 -17.2054 -8.1109 7.1250 -0.0000 -0.0000 45.7948 -42.1809 4.2078
49.9796 15.8908 16.7458 -174.4510 -40.4972 172.9510 0.0000 0.0000 0.0000 -14.9621 7.8546 -7.7242 2.4338 9.7165 28.0634 1.5516 -0.2270 -23.5000 0.0802 1.8271 5.0281 0.0000 0.0000 0.0000 26.3082 1.7318 -9.3445 -3.6587 -11.6918 34.6502 -2.1473 -3.9392 -29.3098 -0.2227 -3.0378 8.3840 2.9377 -1.2005 4.3333 1.4663 -1.7273 4.0812 -0.0938 -0.8967 1.7325 1.8895 0.2323 -9.1808 -0.2746 0.0214 10.4585 -0.3930 0.0438 4.6413 0.0000 -0.0000 0.0000 -85.7152 13.8691 38.5530 153.0967 -38.0869 -110.5606 -0.0000 0.0000 -2.7846 -12.3271 41.2299 -8.1959 -7.1250 0.0000 -0.0000 -57.7865 61.8207 -28.6048 0.0000 -0.0000 0.0000 84.0535 -11.8696 38.1396 -149.2183 41.5541 -108.0752 0.0000 0.0000 13.1729 25.6988 -17.2159 -8.1064 7.1250 -0.0000 -0.0000 45.7846 -42.1930 4.1877
49.9829 15.8919 16.7482 -174.4950 -40.4863 173.0050 0.0000 0.0000 0.0000 -15.0014 7.8534 -7.7536 2.4293 9.7082 28.0367 1.5429 -0.2070 -23.4399 0.0745 1.7608 4.8452 0.0000 0.0000 0.0000 26.2738 1.7533 -9.3964 -3.6626 -11.6974 34.6697 -2.1440 -3.9470 -29.2926 -0.2216 -3.0304 8.3633 2.9082 -1.1859 4.3296 1.4461 -1.7100 4.1049 -0.0990 -0.8883 1.7595 1.9117 0.2213 -9.1933 -0.3202 0.0094 10.4434 -0.4114 0.0362 4.6386 0.0000 -0.0000 0.0000 -85.7036 13.8189 38.6724 153.0474 -38.1340 -110.5302 -0.0000 0.0000 -2.3089 -11.8216 41.0091 -7.8202 -7.1250 0.0000 -0.0000 -57.0364 61.8228 -28.0961 0.0000 -0.0000 0.0000 84.0656 -11.8488 38.1588 -149.2308 41.5437 -108.0835 0.0000 0.0000 13.1836 25.6491 -17.2233 -8.0919 7.1250 -0.0000 -0.0000 45.7569 -42.2062 4.1632
49.9862 15.8930 16.7506 -174.5380 -40.4791 173.0640 0.0000 0.0000 0.0000 -15.0402 7.8478 -7.7884 2.4244 9.6992 28.0081 1.5325 -0.1874 -23.3662 0.0670 1.6702 4.5951 0.0000 0.0000 0.0000 26.2403 1.7751 -9.4558 -3.6667 -11.7032 34.6900 -2.1407 -3.9576 -29.2763 -0.2207 -3.0245 8.3469 2.8790 -1.1728 4.3194 1.4260 -1.6945 4.1244 -0.1042 -0.8807 1.7857 1.9388 0.2078 -9.1933 -0.3717 -0.0058 10.4247 -0.4327 0.0268 4.6326 0.0000 0.0000 0.0000 -85.6918 13.7802 38.7950 152.9948 -38.1841 -110.4977 -0.0000 0.0000 -1.8167 -11.3173 40.7830 -7.4478 -7.1250 0.0000 -0.0000 -56.2794 61.8192 -27.5816 0.0000 0.0000 0.0000 84.0771 -11.8344 38.1836 -149.2406 41.5355 -108.0900 0.0000 0.0000 13.1943 25.5760 -17.2343 -8.0708 7.1250 -0.0000 -0.0000 45.7163 -42.2256 4.1273
49.9898 15.8942 16.7529 -174.5800 -40.4790 173.1270 0.0000 0.0000 0.0000 -15.0773 7.8434 -7.8296 2.4196 9.6903 27.9795 1.5209 -0.1756 -23.2811 0.0591 1.5687 4.3152 0.0000 0.0000 0.0000 26.2082 1.7986 -9.5182 -3.6708 -11.7090 34.7101 -2.1384 -3.9678 -29.2664 -0.2202 -3.0210 8.3372 2.8440 -1.1623 4.3052 1.4087 -1.6825 4.1413 -0.1034 -0.8749 1.8118 1.9567 0.1965 -9.1873 -0.4090 -0.0183 10.4033 -0.4479 0.0191 4.6249 -0.0000 -0.0000 0.0000 -85.6835 13.7407 38.9021 152.9430 -38.2335 -110.4656 -0.0000 0.0000 -1.3940 -10.8823 40.6030 -7.1317 -7.1250 0.0000 -0.0000 -55.6474 61.8237 -27.1664 -0.0000 -0.0000 0.0000 84.0867 -11.8195 38.2126 -149.2469 41.5303 -108.0942 0.0000 0.0000 13.2016 25.4934 -17.2501 -8.0484 7.1250 -0.0000 -0.0000 45.6721 -42.2503 4.0830
49.9935 15.8954 16.7550 -174.6210 -40.4875 173.1860 0.0000 0.0000 0.0000 -15.1110 7.8434 -7.8722 2.4149 9.6814 27.9511 1.5094 -0.1701 -23.1940 0.0522 1.4741 4.0544 0.0000 0.0000 0.0000 26.1779 1.8205 -9.5773 -3.6747 -11.7145 34.7294 -2.1374 -3.9751 -29.2636 -0.2209 -3.0252 8.3490 2.8092 -1.1524 4.2919 1.3906 -1.6711 4.1562 -0.1034 -0.8695 1.8351 1.9730 0.1819 -9.1659 -0.4395 -0.0357 10.3795 -0.4610 0.0094 4.6137 0.0000 0.0000 0.0000 -85.6684 13.6961 38.9717 152.9017 -38.2728 -110.4400 -0.0000 0.0000 -1.1581 -10.6370 40.4780 -6.9512 -7.1250 0.0000 -0.0000 -55.2575 61.8111 -26.8925 0.0000 0.0000 0.0000 84.1031 -11.8077 38.2364 -149.2487 41.5288 -108.0954 0.0000 0.0000 13.2037 25.4041 -17.2689 -8.0249 7.1250 -0.0000 -0.0000 45.6256 -42.2782 4.0336
49.9972 15.8965 16.7569 -174.6610 -40.4986 173.2410 0.0000 0.0000 0.0000 -15.1437 7.8435 -7.9095 2.4100 9.6724 27.9223 1.4995 -0.1635 -23.1188 0.0474 1.4055 3.8654 0.0000 0.0000 0.0000 26.1484 1.8408 -9.6310 -3.6785 -11.7198 34.7478 -2.1369 -3.9828 -29.2640 -0.2212 -3.0274 8.3551 2.7716 -1.1443 4.2803 1.3729 -1.6621 4.1718 -0.1014 -0.8654 1.8582 1.9888 0.1721 -9.1511 -0.4631 -0.0478 10.3669 -0.4716 0.0026 4.6072 -0.0000 0.0000 0.0000 -85.6517 13.6365 38.9798 152.8765 -38.2967 -110.4244 -0.0000 0.0000 -1.1842 -10.6135 40.4279 -6.9286 -7.1250 0.0000 -0.0000 -55.1661 61.7861 -26.8004 -0.0000 0.0000 0.0000 84.1206 -11.7903 38.2631 -149.2424 41.5340 -108.0912 0.0000 0.0000 13.1951 25.3151 -17.2891 -8.0021 7.1250 -0.0000 -0.0000 45.5797 -42.3071 3.9830
50.0010 15.8976 16.7587 -174.7010 -40.5144 173.2900 0.0000 0.0000 0.0000 -15.1748 7.8450 -7.9422 2.4051 9.6633 27.8932 1.4907 -0.1582 -23.0524 0.0446 1.3625 3.7467 0.0000 0.0000 0.0000 26.1196 1.8608 -9.6776 -3.6820 -11.7248 34.7653 -2.1379 -3.9842 -29.2711 -0.2226 -3.0370 8.3819 2.7357 -1.1367 4.2734 1.3536 -1.6535 4.1873 -0.1018 -0.8614 1.8785 1.9933 0.1689 -9.1427 -0.4636 -0.0526 10.3687 -0.4729 0.0003 4.6063 0.0000 0.0000 0.0000 -85.6252 13.5775 38.9938 152.8464 -38.3252 -110.4058 -0.0000 0.0000 -1.2277 -10.5885 40.3779 -6.9051 -7.1250 0.0000 -0.0000 -55.0735 61.7615 -26.7083 0.0000 0.0000 0.0000 84.1443 -11.7701 38.2846 -149.2308 41.5437 -108.0835 0.0000 0.0000 13.1787 25.2350 -17.3108 -7.9831 7.1250 -0.0000 -0.0000 45.5407 -42.3362 3.9334
50.0046 15.8987 16.7603 -174.7410 -40.5297 173.3330 0.0000 0.0000 0.0000 -15.2060 7.8446 -7.9654 2.4001 9.6540 27.8634 1.4839 -0.1468 -23.0031 0.0436 1.3480 3.7068 0.0000 0.0000 0.0000 26.0908 1.8791 -9.7157 -3.6855 -11.7297 34.7823 -2.1393 -3.9841 -29.2799 -0.2238 -3.0451 8.4044 2.7011 -1.1294 4.2719 1.3334 -1.6453 4.2034 -0.1036 -0.8577 1.8965 2.0001 0.1671 -9.1402 -0.4664 -0.0561 10.3845 -0.4751 -0.0014 4.6107 -0.0000 -0.0000 0.0000 -85.5921 13.5209 39.0100 152.8139 -38.3561 -110.3856 -0.0000 0.0000 -1.2848 -10.5894 40.3267 -6.8984 -7.1250 0.0000 -0.0000 -55.0020 61.7293 -26.6202 -0.0000 -0.0000 0.0000 84.1669 -11.7478 38.3069 -149.2147 41.5570 -108.0729 0.0000 0.0000 13.1468 25.1593 -17.3335 -7.9661 7.1250 -0.0000 -0.0000 45.5049 -42.3651 3.8845
